<mxfile host="app.diagrams.net" modified="2023-11-06T02:01:14.813Z" agent="Mozilla/5.0 (Windows NT 10.0; Win64; x64) AppleWebKit/537.36 (KHTML, like Gecko) Chrome/119.0.0.0 Safari/537.36" etag="Lo1L5h54m-Mu3WR0d2Ih" version="22.0.8" type="device">
  <diagram name="Trang-1" id="dSaXdF9sXOSczGXKSnuP">
    <mxGraphModel dx="794" dy="474" grid="1" gridSize="10" guides="1" tooltips="1" connect="1" arrows="1" fold="1" page="1" pageScale="1" pageWidth="827" pageHeight="1169" math="0" shadow="0">
      <root>
        <mxCell id="0" />
        <mxCell id="1" parent="0" />
        <mxCell id="hOPo2rwWc3sPQRQy0GD5-1" value="Begin" style="ellipse;whiteSpace=wrap;html=1;" vertex="1" parent="1">
          <mxGeometry x="330" y="30" width="120" height="50" as="geometry" />
        </mxCell>
        <mxCell id="hOPo2rwWc3sPQRQy0GD5-2" value="Input Toan, Ly, Hoa" style="shape=parallelogram;perimeter=parallelogramPerimeter;whiteSpace=wrap;html=1;fixedSize=1;" vertex="1" parent="1">
          <mxGeometry x="310" y="100" width="170" height="40" as="geometry" />
        </mxCell>
        <mxCell id="hOPo2rwWc3sPQRQy0GD5-3" value="AVG = (Toan + Ly + Hoa) / 3" style="rounded=1;whiteSpace=wrap;html=1;" vertex="1" parent="1">
          <mxGeometry x="310" y="170" width="170" height="50" as="geometry" />
        </mxCell>
        <mxCell id="hOPo2rwWc3sPQRQy0GD5-4" value="Display AVG&lt;br&gt;" style="shape=parallelogram;perimeter=parallelogramPerimeter;whiteSpace=wrap;html=1;fixedSize=1;" vertex="1" parent="1">
          <mxGeometry x="330" y="250" width="120" height="40" as="geometry" />
        </mxCell>
        <mxCell id="hOPo2rwWc3sPQRQy0GD5-5" value="End" style="ellipse;whiteSpace=wrap;html=1;" vertex="1" parent="1">
          <mxGeometry x="330" y="320" width="120" height="40" as="geometry" />
        </mxCell>
        <mxCell id="hOPo2rwWc3sPQRQy0GD5-6" value="" style="endArrow=classic;html=1;rounded=0;exitX=0.5;exitY=1;exitDx=0;exitDy=0;" edge="1" parent="1" source="hOPo2rwWc3sPQRQy0GD5-1">
          <mxGeometry width="50" height="50" relative="1" as="geometry">
            <mxPoint x="380" y="270" as="sourcePoint" />
            <mxPoint x="390" y="100" as="targetPoint" />
          </mxGeometry>
        </mxCell>
        <mxCell id="hOPo2rwWc3sPQRQy0GD5-7" value="" style="endArrow=classic;html=1;rounded=0;exitX=0.459;exitY=1.033;exitDx=0;exitDy=0;exitPerimeter=0;" edge="1" parent="1" source="hOPo2rwWc3sPQRQy0GD5-2">
          <mxGeometry width="50" height="50" relative="1" as="geometry">
            <mxPoint x="400" y="90" as="sourcePoint" />
            <mxPoint x="388" y="170" as="targetPoint" />
          </mxGeometry>
        </mxCell>
        <mxCell id="hOPo2rwWc3sPQRQy0GD5-8" value="" style="endArrow=classic;html=1;rounded=0;exitX=0.459;exitY=1.033;exitDx=0;exitDy=0;exitPerimeter=0;" edge="1" parent="1">
          <mxGeometry width="50" height="50" relative="1" as="geometry">
            <mxPoint x="390" y="220" as="sourcePoint" />
            <mxPoint x="390" y="249" as="targetPoint" />
          </mxGeometry>
        </mxCell>
        <mxCell id="hOPo2rwWc3sPQRQy0GD5-9" value="" style="endArrow=classic;html=1;rounded=0;exitX=0.5;exitY=1;exitDx=0;exitDy=0;entryX=0.5;entryY=0;entryDx=0;entryDy=0;" edge="1" parent="1" source="hOPo2rwWc3sPQRQy0GD5-4" target="hOPo2rwWc3sPQRQy0GD5-5">
          <mxGeometry width="50" height="50" relative="1" as="geometry">
            <mxPoint x="408" y="161" as="sourcePoint" />
            <mxPoint x="408" y="190" as="targetPoint" />
          </mxGeometry>
        </mxCell>
      </root>
    </mxGraphModel>
  </diagram>
</mxfile>
